# xmcd
# 
# Track frame offsets:
#     150
#     16960
#     31135
# 
# Disc length: 617
# 
# Revision: 0
# Processed by: cddbd v1.5.2PL0 Copyright (c) Steve Scherf et al.
# Submitted via: BonkEnc v1.0.8
# 
DISCID=16026703
DTITLE=Papermoon - Lucy's Eyes
DYEAR=1994
DGENRE=Blues
TTITLE0=Lucy's Eyes
TTITLE1=By My Side
TTITLE2=Night After Night (live)
EXTD=
EXTT0=
EXTT1=
EXTT2=aufgenommen am 27.8.1993 in Finkenstein
PLAYORDER=
